<?xml version="1.0" encoding="UTF-8" standalone="no"?>
<!-- Created with Inkscape (http://www.inkscape.org/) -->

<svg
   width="48px"
   height="48px"
   id="svg1306"
   sodipodi:version="0.32"
   inkscape:version="1.2.2 (732a01da63, 2022-12-09)"
   sodipodi:docname="mushroom_icon.svg"
   inkscape:output_extension="org.inkscape.output.svg.inkscape"
   version="1.1"
   xml:space="preserve"
   xmlns:inkscape="http://www.inkscape.org/namespaces/inkscape"
   xmlns:sodipodi="http://sodipodi.sourceforge.net/DTD/sodipodi-0.dtd"
   xmlns:xlink="http://www.w3.org/1999/xlink"
   xmlns="http://www.w3.org/2000/svg"
   xmlns:svg="http://www.w3.org/2000/svg"
   xmlns:rdf="http://www.w3.org/1999/02/22-rdf-syntax-ns#"
   xmlns:cc="http://creativecommons.org/ns#"
   xmlns:dc="http://purl.org/dc/elements/1.1/"><defs
     id="defs1308"><linearGradient
       id="linearGradient2581"
       inkscape:swatch="solid"><stop
         style="stop-color:#061d1f;stop-opacity:1;"
         offset="0"
         id="stop2579" /></linearGradient><inkscape:perspective
       sodipodi:type="inkscape:persp3d"
       inkscape:vp_x="0 : 24 : 1"
       inkscape:vp_y="0 : 1000 : 0"
       inkscape:vp_z="48 : 24 : 1"
       inkscape:persp3d-origin="24 : 16 : 1"
       id="perspective108" /><linearGradient
       inkscape:collect="always"
       xlink:href="#linearGradient6538"
       id="linearGradient6724"
       gradientUnits="userSpaceOnUse"
       x1="284.80219"
       y1="-441.23294"
       x2="288.89954"
       y2="-436.83109" /><linearGradient
       inkscape:collect="always"
       xlink:href="#linearGradient6549"
       id="linearGradient6722"
       gradientUnits="userSpaceOnUse"
       x1="286.66589"
       y1="-439.48358"
       x2="289.76562"
       y2="-436.70703" /><linearGradient
       inkscape:collect="always"
       xlink:href="#linearGradient6527"
       id="linearGradient6720"
       gradientUnits="userSpaceOnUse"
       x1="275.94193"
       y1="-437.10501"
       x2="279.97546"
       y2="-431.91833" /><linearGradient
       inkscape:collect="always"
       xlink:href="#linearGradient6538"
       id="linearGradient6718"
       gradientUnits="userSpaceOnUse"
       x1="285.94086"
       y1="-439.93900"
       x2="289.39124"
       y2="-436.44290" /><linearGradient
       inkscape:collect="always"
       xlink:href="#linearGradient6513"
       id="linearGradient6716"
       gradientUnits="userSpaceOnUse"
       x1="286.51172"
       y1="-441.29074"
       x2="289.85379"
       y2="-436.14453" /><linearGradient
       inkscape:collect="always"
       xlink:href="#linearGradient6497"
       id="linearGradient6714"
       gradientUnits="userSpaceOnUse"
       x1="287.51730"
       y1="-439.75281"
       x2="289.67633"
       y2="-436.32199" /><linearGradient
       inkscape:collect="always"
       xlink:href="#linearGradient6470"
       id="linearGradient6712"
       gradientUnits="userSpaceOnUse"
       x1="271.02170"
       y1="-441.05182"
       x2="285.02859"
       y2="-431.96991" /><linearGradient
       inkscape:collect="always"
       id="linearGradient6549"><stop
         style="stop-color:#ffffff;stop-opacity:1;"
         offset="0"
         id="stop6551" /><stop
         style="stop-color:#ffffff;stop-opacity:0;"
         offset="1"
         id="stop6553" /></linearGradient><linearGradient
       inkscape:collect="always"
       id="linearGradient6527"><stop
         style="stop-color:#ffffff;stop-opacity:1;"
         offset="0"
         id="stop6530" /><stop
         style="stop-color:#ffffff;stop-opacity:0;"
         offset="1"
         id="stop6532" /></linearGradient><linearGradient
       inkscape:collect="always"
       id="linearGradient6538"><stop
         style="stop-color:#ffffff;stop-opacity:1;"
         offset="0"
         id="stop6540" /><stop
         style="stop-color:#ffffff;stop-opacity:0;"
         offset="1"
         id="stop6542" /></linearGradient><linearGradient
       inkscape:collect="always"
       id="linearGradient6513"><stop
         style="stop-color:#ffffff;stop-opacity:1;"
         offset="0"
         id="stop6515" /><stop
         style="stop-color:#ffffff;stop-opacity:0;"
         offset="1"
         id="stop6517" /></linearGradient><linearGradient
       inkscape:collect="always"
       id="linearGradient6497"><stop
         style="stop-color:#ffffff;stop-opacity:1;"
         offset="0"
         id="stop6499" /><stop
         style="stop-color:#ffffff;stop-opacity:0;"
         offset="1"
         id="stop6501" /></linearGradient><linearGradient
       inkscape:collect="always"
       id="linearGradient6470"><stop
         style="stop-color:#ffffff;stop-opacity:1;"
         offset="0"
         id="stop6472" /><stop
         style="stop-color:#ffffff;stop-opacity:0;"
         offset="1"
         id="stop6474" /></linearGradient><linearGradient
       id="linearGradient4083"><stop
         id="stop4085"
         offset="0"
         style="stop-color:#ffffff;stop-opacity:0;" /><stop
         style="stop-color:#ffffff;stop-opacity:0;"
         offset="0.75"
         id="stop4089" /><stop
         id="stop4087"
         offset="1"
         style="stop-color:#ffffff;stop-opacity:1;" /></linearGradient><linearGradient
       id="linearGradient4032"><stop
         id="stop4034"
         offset="0"
         style="stop-color:#fff7c2;stop-opacity:0.63829786" /><stop
         style="stop-color:#fcaf3e;stop-opacity:0.18348624;"
         offset="0.59394139"
         id="stop4036" /><stop
         id="stop4038"
         offset="0.83850551"
         style="stop-color:#fcaf3e;stop-opacity:0.50458717;" /><stop
         id="stop4040"
         offset="1"
         style="stop-color:#fcaf3e;stop-opacity:1;" /></linearGradient><linearGradient
       id="linearGradient4026"><stop
         id="stop4028"
         offset="0"
         style="stop-color:#fff9c6;stop-opacity:1" /><stop
         style="stop-color:#fff28c;stop-opacity:1;"
         offset="0.54166669"
         id="stop4042" /><stop
         id="stop4030"
         offset="1"
         style="stop-color:#ffea85;stop-opacity:1;" /></linearGradient><linearGradient
       inkscape:collect="always"
       xlink:href="#linearGradient4026"
       id="linearGradient3168"
       gradientUnits="userSpaceOnUse"
       x1="-28.968945"
       y1="-25.326815"
       x2="-37.19698"
       y2="-9.5590506" /><radialGradient
       inkscape:collect="always"
       xlink:href="#linearGradient4032"
       id="radialGradient4020"
       cx="-33.519073"
       cy="-22.113297"
       fx="-33.519073"
       fy="-22.113297"
       r="9.5"
       gradientUnits="userSpaceOnUse"
       gradientTransform="matrix(0.487739,1.292402,-1.10267,0.497242,-41.77393,32.41492)" /><radialGradient
       inkscape:collect="always"
       xlink:href="#linearGradient4083"
       id="radialGradient4081"
       cx="23.99999"
       cy="23.381506"
       fx="23.99999"
       fy="23.381506"
       r="19.141981"
       gradientTransform="matrix(1.006701,0,0,1.007522,-0.160816,0.426981)"
       gradientUnits="userSpaceOnUse" /><linearGradient
       id="linearGradient4356"><stop
         id="stop4358"
         offset="0" /><stop
         id="stop4360"
         stop-opacity="0"
         offset="1" /></linearGradient><radialGradient
       id="radialGradient2243"
       xlink:href="#linearGradient4356"
       gradientUnits="userSpaceOnUse"
       cy="19.009"
       cx="31.113"
       r="8.6621" /><radialGradient
       id="radialGradient2251"
       gradientUnits="userSpaceOnUse"
       cy="17.064"
       cx="29.345"
       gradientTransform="matrix(0.788,0,0,0.788,6.2212,3.6176)"
       r="9.1621"><stop
         id="stop3802"
         stop-color="#f4d9b1"
         offset="0" /><stop
         id="stop3804"
         stop-color="#df9725"
         offset="1" /></radialGradient><radialGradient
       id="radialGradient2989"
       gradientUnits="userSpaceOnUse"
       cy="314.05"
       cx="276.82"
       gradientTransform="matrix(0,0.88122,-1.8234,0,707.91,-204.77)"
       r="212.52"><stop
         id="stop3262-9"
         stop-color="#ef2929"
         offset="0" /><stop
         id="stop3264-3"
         stop-color="#c00"
         offset="1" /></radialGradient><linearGradient
       id="linearGradient3263"
       y2="35.74"
       xlink:href="#linearGradient4356"
       gradientUnits="userSpaceOnUse"
       x2="21.408"
       gradientTransform="matrix(-0.96663,0.2077,0.2077,0.96663,59.055,6.3316)"
       y1="36.39"
       x1="22.687" /><linearGradient
       id="linearGradient3266"
       y2="36.218"
       xlink:href="#linearGradient4356"
       gradientUnits="userSpaceOnUse"
       x2="22.627"
       gradientTransform="matrix(0.97225,0.17953,-0.17953,0.97225,10.73,7.6107)"
       y1="35.818"
       x1="20.662" /><linearGradient
       id="linearGradient3275"
       y2="35.803"
       gradientUnits="userSpaceOnUse"
       x2="30.936"
       gradientTransform="matrix(0.98869,0,0,0.98869,4.5684,10.232)"
       y1="29.553"
       x1="30.936"><stop
         id="stop3826"
         stop-color="#fff"
         offset="0" /><stop
         id="stop3828"
         stop-color="#c9c9c9"
         offset="1" /></linearGradient><radialGradient
       id="radialGradient3278"
       gradientUnits="userSpaceOnUse"
       cy="27.203"
       cx="28.09"
       gradientTransform="matrix(1.2829,0,0,0.87482,-3.6956,15.117)"
       r="13.565"><stop
         id="stop4165"
         stop-color="#3b74bc"
         offset="0" /><stop
         id="stop4167"
         stop-color="#2d5990"
         offset="1" /></radialGradient><radialGradient
       id="radialGradient3293"
       gradientUnits="userSpaceOnUse"
       cy="537.53"
       cx="436.73"
       gradientTransform="matrix(0,0.02129,-0.065956,8.1481e-8,60.217,17.487)"
       r="212.52"><stop
         id="stop3220-8"
         offset="0" /><stop
         id="stop3222-0"
         stop-opacity="0"
         offset="1" /></radialGradient><linearGradient
       inkscape:collect="always"
       xlink:href="#linearGradient6470"
       id="linearGradient1323"
       gradientUnits="userSpaceOnUse"
       x1="271.02170"
       y1="-441.05182"
       x2="285.02859"
       y2="-431.96991" /><linearGradient
       inkscape:collect="always"
       xlink:href="#linearGradient6497"
       id="linearGradient1325"
       gradientUnits="userSpaceOnUse"
       x1="287.51730"
       y1="-439.75281"
       x2="289.67633"
       y2="-436.32199" /><linearGradient
       inkscape:collect="always"
       xlink:href="#linearGradient6513"
       id="linearGradient1327"
       gradientUnits="userSpaceOnUse"
       x1="286.51172"
       y1="-441.29074"
       x2="289.85379"
       y2="-436.14453" /><linearGradient
       inkscape:collect="always"
       xlink:href="#linearGradient6538"
       id="linearGradient1329"
       gradientUnits="userSpaceOnUse"
       x1="285.94086"
       y1="-439.93900"
       x2="289.39124"
       y2="-436.44290" /><linearGradient
       inkscape:collect="always"
       xlink:href="#linearGradient6527"
       id="linearGradient1331"
       gradientUnits="userSpaceOnUse"
       x1="275.94193"
       y1="-437.10501"
       x2="279.97546"
       y2="-431.91833" /><linearGradient
       inkscape:collect="always"
       xlink:href="#linearGradient6549"
       id="linearGradient1333"
       gradientUnits="userSpaceOnUse"
       x1="286.66589"
       y1="-439.48358"
       x2="289.76562"
       y2="-436.70703" /><linearGradient
       inkscape:collect="always"
       xlink:href="#linearGradient6538"
       id="linearGradient1335"
       gradientUnits="userSpaceOnUse"
       x1="284.80219"
       y1="-441.23294"
       x2="288.89954"
       y2="-436.83109" /><radialGradient
       inkscape:collect="always"
       xlink:href="#radialGradient3293"
       id="radialGradient2087"
       gradientUnits="userSpaceOnUse"
       gradientTransform="matrix(0,0.02129,-0.065956,8.1481e-8,60.217,17.487)"
       cx="436.73"
       cy="537.53"
       r="212.52" /><radialGradient
       inkscape:collect="always"
       xlink:href="#radialGradient2989"
       id="radialGradient2089"
       gradientUnits="userSpaceOnUse"
       gradientTransform="matrix(0,0.88122,-1.8234,0,707.91,-204.77)"
       cx="276.82"
       cy="314.05"
       r="212.52" /><radialGradient
       inkscape:collect="always"
       xlink:href="#radialGradient3293"
       id="radialGradient2235"
       gradientUnits="userSpaceOnUse"
       gradientTransform="matrix(0,0.02129,-0.065956,8.1481e-8,60.217,17.487)"
       cx="436.73"
       cy="537.53"
       r="212.52" /><radialGradient
       inkscape:collect="always"
       xlink:href="#radialGradient2989"
       id="radialGradient2237"
       gradientUnits="userSpaceOnUse"
       gradientTransform="matrix(0,0.88122,-1.8234,0,707.91,-204.77)"
       cx="276.82"
       cy="314.05"
       r="212.52" /><radialGradient
       inkscape:collect="always"
       xlink:href="#radialGradient3293"
       id="radialGradient2271"
       gradientUnits="userSpaceOnUse"
       gradientTransform="matrix(0,0.02129,-0.065956,8.1481e-8,60.217,17.487)"
       cx="436.73"
       cy="537.53"
       r="212.52" /><radialGradient
       inkscape:collect="always"
       xlink:href="#radialGradient2989"
       id="radialGradient2273"
       gradientUnits="userSpaceOnUse"
       gradientTransform="matrix(0,0.88122,-1.8234,0,707.91,-204.77)"
       cx="276.82"
       cy="314.05"
       r="212.52" /><radialGradient
       inkscape:collect="always"
       xlink:href="#radialGradient3293"
       id="radialGradient2307"
       gradientUnits="userSpaceOnUse"
       gradientTransform="matrix(0,0.02129,-0.065956,8.1481e-8,60.217,17.487)"
       cx="436.73"
       cy="537.53"
       r="212.52" /><radialGradient
       inkscape:collect="always"
       xlink:href="#radialGradient2989"
       id="radialGradient2309"
       gradientUnits="userSpaceOnUse"
       gradientTransform="matrix(0,0.88122,-1.8234,0,707.91,-204.77)"
       cx="276.82"
       cy="314.05"
       r="212.52" /><linearGradient
       inkscape:collect="always"
       xlink:href="#linearGradient2581"
       id="linearGradient2693"
       gradientUnits="userSpaceOnUse"
       gradientTransform="translate(-1.1383741,3.9843094)"
       x1="19.104313"
       y1="15.153004"
       x2="30.364079"
       y2="15.153004" /><linearGradient
       inkscape:collect="always"
       xlink:href="#linearGradient2581"
       id="linearGradient2832"
       gradientUnits="userSpaceOnUse"
       gradientTransform="translate(-1.1383741,3.9843094)"
       x1="19.104313"
       y1="15.153004"
       x2="30.364079"
       y2="15.153004" /><linearGradient
       inkscape:collect="always"
       xlink:href="#linearGradient2581"
       id="linearGradient2834"
       gradientUnits="userSpaceOnUse"
       gradientTransform="translate(-1.1383741,3.9843094)"
       x1="19.104313"
       y1="15.153004"
       x2="30.364079"
       y2="15.153004" /><radialGradient
       inkscape:collect="always"
       xlink:href="#radialGradient3293"
       id="radialGradient2868"
       gradientUnits="userSpaceOnUse"
       gradientTransform="matrix(0,0.02129,-0.065956,8.1481e-8,60.217,17.487)"
       cx="436.73"
       cy="537.53"
       r="212.52" /><radialGradient
       inkscape:collect="always"
       xlink:href="#radialGradient2989"
       id="radialGradient2870"
       gradientUnits="userSpaceOnUse"
       gradientTransform="matrix(0,0.88122,-1.8234,0,707.91,-204.77)"
       cx="276.82"
       cy="314.05"
       r="212.52" /></defs><sodipodi:namedview
     id="base"
     pagecolor="#ffffff"
     bordercolor="#666666"
     borderopacity="1.0"
     inkscape:pageopacity="0.0"
     inkscape:pageshadow="2"
     inkscape:zoom="10.54135"
     inkscape:cx="13.47076"
     inkscape:cy="29.834888"
     inkscape:current-layer="g2737"
     showgrid="true"
     inkscape:grid-bbox="true"
     inkscape:document-units="px"
     inkscape:window-width="1379"
     inkscape:window-height="1000"
     inkscape:window-x="-7"
     inkscape:window-y="0"
     inkscape:showpageshadow="false"
     inkscape:pagecheckerboard="0"
     inkscape:deskcolor="#d1d1d1"
     inkscape:window-maximized="0" /><metadata
     id="metadata1311"><rdf:RDF><cc:Work
         rdf:about=""><dc:format>image/svg+xml</dc:format><dc:type
           rdf:resource="http://purl.org/dc/dcmitype/StillImage" /><dc:date>January 2006</dc:date><dc:creator><cc:Agent><dc:title>Ryan Collier (pseudo)</dc:title></cc:Agent></dc:creator><dc:publisher><cc:Agent><dc:title>http://www.tango-project.org</dc:title></cc:Agent></dc:publisher><dc:source>http://www.pseudocode.org</dc:source><dc:subject><rdf:Bag><rdf:li>weather</rdf:li><rdf:li>applet</rdf:li><rdf:li>notification</rdf:li></rdf:Bag></dc:subject><cc:license
           rdf:resource="http://creativecommons.org/licenses/publicdomain/" /><dc:contributor><cc:Agent><dc:title>Garrett LeSage</dc:title></cc:Agent></dc:contributor></cc:Work><cc:License
         rdf:about="http://creativecommons.org/licenses/publicdomain/"><cc:permits
           rdf:resource="http://creativecommons.org/ns#Reproduction" /><cc:permits
           rdf:resource="http://creativecommons.org/ns#Distribution" /><cc:permits
           rdf:resource="http://creativecommons.org/ns#DerivativeWorks" /></cc:License></rdf:RDF></metadata><g
     id="layer1"
     inkscape:label="Layer 1"
     inkscape:groupmode="layer"><g
       id="g2737"
       transform="matrix(1.2580258,0,0,2.1099385,-322.90351,977.6602)"><g
         id="g1321"
         transform="matrix(0.56512293,0,0,0.31600512,110.70961,-317.85194)"><path
           sodipodi:nodetypes="ccsscsssscsscc"
           id="path1279"
           d="m 280.5,-445.5 c -2.27083,0 -4.10991,1.55028 -4.71875,3.625 -0.69323,-0.36383 -1.44451,-0.625 -2.28125,-0.625 -2.76,0 -5.00001,2.23999 -5,5 0,0.57893 0.16252,1.1077 0.34375,1.625 -1.37347,0.77074 -2.34375,2.189 -2.34375,3.875 0,2.484 2.016,4.50001 4.5,4.5 0.17713,0 18.82287,0 19,0 2.48399,0 4.5,-2.016 4.5,-4.5 0,-1.686 -0.97028,-3.10426 -2.34375,-3.875 0.18124,-0.51729 0.34375,-1.04608 0.34375,-1.625 0,-2.76 -2.24,-4.99999 -5,-5 -0.83674,0 -1.58802,0.26117 -2.28125,0.625 -0.60884,-2.07472 -2.44792,-3.625 -4.71875,-3.625 z"
           style="fill:#c4c5c2;fill-opacity:1;stroke:#888a85;stroke-width:1;stroke-linecap:butt;stroke-linejoin:miter;stroke-miterlimit:2;stroke-dasharray:none;stroke-dashoffset:0;stroke-opacity:1" /><path
           sodipodi:nodetypes="ccsscsssscsscc"
           id="path1281"
           d="m 280.5,-445 c -2.18972,0 -3.7236,1.33577 -4.39555,3.84352 -0.66846,-0.34362 -1.54759,-0.83335 -2.35445,-0.83335 -2.71651,0 -4.75514,1.93882 -4.75513,4.54554 0,0.54677 0.26721,1.33344 0.44196,1.82201 -1.32443,0.72795 -2.43683,1.8905 -2.43683,3.37255 0,2.34605 1.54617,4.25009 4.33928,4.25009 0.17081,0 18.15064,0 18.32144,0 2.77101,0 4.33928,-1.90404 4.33928,-4.25009 0,-1.59237 -1.1124,-2.66669 -2.43683,-3.39464 0.17476,-0.48856 0.46407,-1.25316 0.46407,-1.79992 0,-2.60671 -2.11581,-4.56763 -4.77723,-4.56764 -0.80687,0 -1.64181,0.48974 -2.31027,0.83336 C 284.29089,-443.60011 282.68973,-445 280.5,-445 Z"
           style="opacity:1;fill:url(#linearGradient1323);fill-opacity:1;stroke:none;stroke-width:1;stroke-linecap:butt;stroke-linejoin:miter;stroke-miterlimit:2;stroke-dasharray:none;stroke-dashoffset:0;stroke-opacity:1" /><g
           id="g1287"><circle
             style="opacity:1;fill:#c4c5c2;fill-opacity:1;stroke:none;stroke-width:1;stroke-linecap:butt;stroke-linejoin:miter;stroke-miterlimit:2;stroke-dasharray:none;stroke-dashoffset:0;stroke-opacity:1"
             id="circle1283"
             transform="matrix(1.056604,0,0,1.056604,-24.19818,21.86331)"
             cx="288.375"
             cy="-437.59375"
             r="3.3125" /><circle
             style="opacity:1;fill:url(#linearGradient1325);fill-opacity:1;stroke:none;stroke-width:1;stroke-linecap:butt;stroke-linejoin:miter;stroke-miterlimit:2;stroke-dasharray:none;stroke-dashoffset:0;stroke-opacity:1"
             id="circle1285"
             transform="matrix(1.056604,0,0,1.056604,-24.19818,21.86331)"
             cx="288.375"
             cy="-437.59375"
             r="3.3125" /></g><rect
           y="-438"
           x="271"
           height="9"
           width="20"
           id="rect1289"
           style="opacity:1;fill:#c4c5c2;fill-opacity:1;stroke:none;stroke-width:1;stroke-linecap:butt;stroke-linejoin:miter;stroke-miterlimit:2;stroke-dasharray:none;stroke-dashoffset:0;stroke-opacity:1" /><circle
           transform="matrix(0.90566,0,0,0.90566,9.830195,-35.68869)"
           id="circle1291"
           style="opacity:1;fill:#c4c5c2;fill-opacity:1;stroke:none;stroke-width:1;stroke-linecap:butt;stroke-linejoin:miter;stroke-miterlimit:2;stroke-dasharray:none;stroke-dashoffset:0;stroke-opacity:1"
           cx="288.375"
           cy="-437.59375"
           r="3.3125" /><g
           id="g1297"><circle
             style="opacity:1;fill:#c4c5c2;fill-opacity:1;stroke:none;stroke-width:1;stroke-linecap:butt;stroke-linejoin:miter;stroke-miterlimit:2;stroke-dasharray:none;stroke-dashoffset:0;stroke-opacity:1"
             id="circle1293"
             transform="matrix(1.056604,0,0,1.056604,-17.19811,24.86321)"
             cx="288.375"
             cy="-437.59375"
             r="3.3125" /><circle
             style="opacity:1;fill:url(#linearGradient1327);fill-opacity:1;stroke:none;stroke-width:1;stroke-linecap:butt;stroke-linejoin:miter;stroke-miterlimit:2;stroke-dasharray:none;stroke-dashoffset:0;stroke-opacity:1"
             id="circle1295"
             transform="matrix(1.056604,0,0,1.056604,-17.19818,24.86331)"
             cx="288.375"
             cy="-437.59375"
             r="3.3125" /></g><g
           id="g1303"><circle
             style="opacity:1;fill:#c4c5c2;fill-opacity:1;stroke:none;stroke-width:1;stroke-linecap:butt;stroke-linejoin:miter;stroke-miterlimit:2;stroke-dasharray:none;stroke-dashoffset:0;stroke-opacity:1"
             id="circle1299"
             transform="matrix(1.056604,0,0,1.056604,-31.19818,24.86331)"
             cx="288.375"
             cy="-437.59375"
             r="3.3125" /><circle
             style="opacity:1;fill:url(#linearGradient1329);fill-opacity:1;stroke:none;stroke-width:1;stroke-linecap:butt;stroke-linejoin:miter;stroke-miterlimit:2;stroke-dasharray:none;stroke-dashoffset:0;stroke-opacity:1"
             id="circle1301"
             transform="matrix(1.056604,0,0,1.056604,-31.19818,24.86331)"
             cx="288.375"
             cy="-437.59375"
             r="3.3125" /></g><g
           transform="translate(-1)"
           id="g1309"><path
             style="opacity:1;fill:#c4c5c2;fill-opacity:1;stroke:none;stroke-width:1;stroke-linecap:butt;stroke-linejoin:miter;stroke-miterlimit:2;stroke-dasharray:none;stroke-dashoffset:0;stroke-opacity:1"
             d="m 280.46875,-440.96875 c -3.57938,0 -6.46875,2.92063 -6.46875,6.5 0,2.37068 1.34943,4.33779 3.25,5.46875 h 6.46875 c 1.90057,-1.13096 3.25,-3.12931 3.25,-5.5 0,-3.57938 -2.92063,-6.46875 -6.5,-6.46875 z"
             id="path1305" /><path
             style="opacity:1;fill:url(#linearGradient1331);fill-opacity:1;stroke:none;stroke-width:1;stroke-linecap:butt;stroke-linejoin:miter;stroke-miterlimit:2;stroke-dasharray:none;stroke-dashoffset:0;stroke-opacity:1"
             d="m 280.5,-441 c -3.588,0 -6.5,2.91201 -6.5,6.5 0,2.3764 1.34485,4.36632 3.25,5.5 h 6.5 c 1.90515,-1.13368 3.25,-3.1236 3.25,-5.5 0,-3.588 -2.912,-6.49999 -6.5,-6.5 z"
             id="path1307" /></g><circle
           transform="matrix(0.90566,0,0,0.90566,9.830296,-35.68884)"
           id="circle1311"
           style="opacity:1;fill:url(#linearGradient1333);fill-opacity:1;stroke:none;stroke-width:1;stroke-linecap:butt;stroke-linejoin:miter;stroke-miterlimit:2;stroke-dasharray:none;stroke-dashoffset:0;stroke-opacity:1"
           cx="288.375"
           cy="-437.59375"
           r="3.3125" /><path
           sodipodi:nodetypes="ccss"
           id="path1313"
           d="m 292.9564,-437.33396 c -0.002,2.68456 -3.26926,3.71395 -3.26926,3.71395 0,0 2.34874,-1.62595 2.33685,-3.70501 0,0 0.93241,-0.009 0.93241,-0.009 z"
           style="fill:#888a85;fill-opacity:1;fill-rule:evenodd;stroke:none;stroke-width:1px;stroke-linecap:butt;stroke-linejoin:miter;stroke-opacity:1" /><g
           transform="matrix(1.142857,0,0,1.142857,-28.57139,67.00008)"
           id="g1319"><circle
             style="opacity:1;fill:#c4c5c2;fill-opacity:1;stroke:none;stroke-width:1;stroke-linecap:butt;stroke-linejoin:miter;stroke-miterlimit:2;stroke-dasharray:none;stroke-dashoffset:0;stroke-opacity:1"
             id="circle1315"
             transform="matrix(1.056604,0,0,1.056604,-31.19818,24.86331)"
             cx="288.375"
             cy="-437.59375"
             r="3.3125" /><circle
             style="opacity:1;fill:url(#linearGradient1335);fill-opacity:1;stroke:none;stroke-width:1;stroke-linecap:butt;stroke-linejoin:miter;stroke-miterlimit:2;stroke-dasharray:none;stroke-dashoffset:0;stroke-opacity:1"
             id="circle1317"
             transform="matrix(1.056604,0,0,1.056604,-31.19818,24.86331)"
             cx="288.375"
             cy="-437.59375"
             r="3.3125" /></g></g><rect
         style="fill:#008080;fill-opacity:1;stroke:#000000;stroke-width:0;stroke-dasharray:none;stroke-opacity:1"
         id="rect2924"
         width="0.075407445"
         height="0.35968634"
         x="278.31671"
         y="-434.40482" /></g><g
       id="g6668"
       transform="matrix(0.70589951,0,0,0.67405566,-164.56952,310.1056)"><path
         sodipodi:nodetypes="ccsscsssscsscc"
         id="path6670"
         d="m 280.5,-445.5 c -2.27083,0 -4.10991,1.55028 -4.71875,3.625 -0.69323,-0.36383 -1.44451,-0.625 -2.28125,-0.625 -2.76,0 -5.00001,2.23999 -5,5 0,0.57893 0.16252,1.1077 0.34375,1.625 -1.37347,0.77074 -2.34375,2.189 -2.34375,3.875 0,2.484 2.016,4.50001 4.5,4.5 0.17713,0 18.82287,0 19,0 2.48399,0 4.5,-2.016 4.5,-4.5 0,-1.686 -0.97028,-3.10426 -2.34375,-3.875 0.18124,-0.51729 0.34375,-1.04608 0.34375,-1.625 0,-2.76 -2.24,-4.99999 -5,-5 -0.83674,0 -1.58802,0.26117 -2.28125,0.625 -0.60884,-2.07472 -2.44792,-3.625 -4.71875,-3.625 z"
         style="fill:#c4c5c2;fill-opacity:1;stroke:#888a85;stroke-width:1;stroke-linecap:butt;stroke-linejoin:miter;stroke-miterlimit:2;stroke-dasharray:none;stroke-dashoffset:0;stroke-opacity:1" /><path
         sodipodi:nodetypes="ccsscsssscsscc"
         id="path6672"
         d="m 280.5,-445 c -2.18972,0 -3.7236,1.33577 -4.39555,3.84352 -0.66846,-0.34362 -1.54759,-0.83335 -2.35445,-0.83335 -2.71651,0 -4.75514,1.93882 -4.75513,4.54554 0,0.54677 0.26721,1.33344 0.44196,1.82201 -1.32443,0.72795 -2.43683,1.8905 -2.43683,3.37255 0,2.34605 1.54617,4.25009 4.33928,4.25009 0.17081,0 18.15064,0 18.32144,0 2.77101,0 4.33928,-1.90404 4.33928,-4.25009 0,-1.59237 -1.1124,-2.66669 -2.43683,-3.39464 0.17476,-0.48856 0.46407,-1.25316 0.46407,-1.79992 0,-2.60671 -2.11581,-4.56763 -4.77723,-4.56764 -0.80687,0 -1.64181,0.48974 -2.31027,0.83336 C 284.29089,-443.60011 282.68973,-445 280.5,-445 Z"
         style="opacity:1;fill:url(#linearGradient6712);fill-opacity:1;stroke:none;stroke-width:1;stroke-linecap:butt;stroke-linejoin:miter;stroke-miterlimit:2;stroke-dasharray:none;stroke-dashoffset:0;stroke-opacity:1" /><g
         id="g6674"><circle
           style="opacity:1;fill:#c4c5c2;fill-opacity:1;stroke:none;stroke-width:1;stroke-linecap:butt;stroke-linejoin:miter;stroke-miterlimit:2;stroke-dasharray:none;stroke-dashoffset:0;stroke-opacity:1"
           id="path6676"
           transform="matrix(1.056604,0,0,1.056604,-24.19818,21.86331)"
           cx="288.375"
           cy="-437.59375"
           r="3.3125" /><circle
           style="opacity:1;fill:url(#linearGradient6714);fill-opacity:1;stroke:none;stroke-width:1;stroke-linecap:butt;stroke-linejoin:miter;stroke-miterlimit:2;stroke-dasharray:none;stroke-dashoffset:0;stroke-opacity:1"
           id="path6678"
           transform="matrix(1.056604,0,0,1.056604,-24.19818,21.86331)"
           cx="288.375"
           cy="-437.59375"
           r="3.3125" /></g><rect
         y="-438"
         x="271"
         height="9"
         width="20"
         id="rect6680"
         style="opacity:1;fill:#c4c5c2;fill-opacity:1;stroke:none;stroke-width:1;stroke-linecap:butt;stroke-linejoin:miter;stroke-miterlimit:2;stroke-dasharray:none;stroke-dashoffset:0;stroke-opacity:1" /><circle
         transform="matrix(0.90566,0,0,0.90566,9.830195,-35.68869)"
         id="path6682"
         style="opacity:1;fill:#c4c5c2;fill-opacity:1;stroke:none;stroke-width:1;stroke-linecap:butt;stroke-linejoin:miter;stroke-miterlimit:2;stroke-dasharray:none;stroke-dashoffset:0;stroke-opacity:1"
         cx="288.375"
         cy="-437.59375"
         r="3.3125" /><g
         id="g6684"><circle
           style="opacity:1;fill:#c4c5c2;fill-opacity:1;stroke:none;stroke-width:1;stroke-linecap:butt;stroke-linejoin:miter;stroke-miterlimit:2;stroke-dasharray:none;stroke-dashoffset:0;stroke-opacity:1"
           id="path6686"
           transform="matrix(1.056604,0,0,1.056604,-17.19811,24.86321)"
           cx="288.375"
           cy="-437.59375"
           r="3.3125" /><circle
           style="opacity:1;fill:url(#linearGradient6716);fill-opacity:1;stroke:none;stroke-width:1;stroke-linecap:butt;stroke-linejoin:miter;stroke-miterlimit:2;stroke-dasharray:none;stroke-dashoffset:0;stroke-opacity:1"
           id="path6688"
           transform="matrix(1.056604,0,0,1.056604,-17.19818,24.86331)"
           cx="288.375"
           cy="-437.59375"
           r="3.3125" /></g><g
         id="g6690"><circle
           style="opacity:1;fill:#c4c5c2;fill-opacity:1;stroke:none;stroke-width:1;stroke-linecap:butt;stroke-linejoin:miter;stroke-miterlimit:2;stroke-dasharray:none;stroke-dashoffset:0;stroke-opacity:1"
           id="path6692"
           transform="matrix(1.056604,0,0,1.056604,-31.19818,24.86331)"
           cx="288.375"
           cy="-437.59375"
           r="3.3125" /><circle
           style="opacity:1;fill:url(#linearGradient6718);fill-opacity:1;stroke:none;stroke-width:1;stroke-linecap:butt;stroke-linejoin:miter;stroke-miterlimit:2;stroke-dasharray:none;stroke-dashoffset:0;stroke-opacity:1"
           id="path6694"
           transform="matrix(1.056604,0,0,1.056604,-31.19818,24.86331)"
           cx="288.375"
           cy="-437.59375"
           r="3.3125" /></g><g
         transform="translate(-1)"
         id="g6696"><path
           style="opacity:1;fill:#c4c5c2;fill-opacity:1;stroke:none;stroke-width:1;stroke-linecap:butt;stroke-linejoin:miter;stroke-miterlimit:2;stroke-dasharray:none;stroke-dashoffset:0;stroke-opacity:1"
           d="m 280.46875,-440.96875 c -3.57938,0 -6.46875,2.92063 -6.46875,6.5 0,2.37068 1.34943,4.33779 3.25,5.46875 h 6.46875 c 1.90057,-1.13096 3.25,-3.12931 3.25,-5.5 0,-3.57938 -2.92063,-6.46875 -6.5,-6.46875 z"
           id="path6698" /><path
           style="opacity:1;fill:url(#linearGradient6720);fill-opacity:1;stroke:none;stroke-width:1;stroke-linecap:butt;stroke-linejoin:miter;stroke-miterlimit:2;stroke-dasharray:none;stroke-dashoffset:0;stroke-opacity:1"
           d="m 280.5,-441 c -3.588,0 -6.5,2.91201 -6.5,6.5 0,2.3764 1.34485,4.36632 3.25,5.5 h 6.5 c 1.90515,-1.13368 3.25,-3.1236 3.25,-5.5 0,-3.588 -2.912,-6.49999 -6.5,-6.5 z"
           id="path6700" /></g><circle
         transform="matrix(0.90566,0,0,0.90566,9.830296,-35.68884)"
         id="path6702"
         style="opacity:1;fill:url(#linearGradient6722);fill-opacity:1;stroke:none;stroke-width:1;stroke-linecap:butt;stroke-linejoin:miter;stroke-miterlimit:2;stroke-dasharray:none;stroke-dashoffset:0;stroke-opacity:1"
         cx="288.375"
         cy="-437.59375"
         r="3.3125" /><path
         sodipodi:nodetypes="ccss"
         id="path6704"
         d="m 292.9564,-437.33396 c -0.002,2.68456 -3.26926,3.71395 -3.26926,3.71395 0,0 2.34874,-1.62595 2.33685,-3.70501 0,0 0.93241,-0.009 0.93241,-0.009 z"
         style="fill:#888a85;fill-opacity:1;fill-rule:evenodd;stroke:none;stroke-width:1px;stroke-linecap:butt;stroke-linejoin:miter;stroke-opacity:1" /><g
         transform="matrix(1.142857,0,0,1.142857,-28.57139,67.00008)"
         id="g6706"><circle
           style="opacity:1;fill:#c4c5c2;fill-opacity:1;stroke:none;stroke-width:1;stroke-linecap:butt;stroke-linejoin:miter;stroke-miterlimit:2;stroke-dasharray:none;stroke-dashoffset:0;stroke-opacity:1"
           id="path6708"
           transform="matrix(1.056604,0,0,1.056604,-31.19818,24.86331)"
           cx="288.375"
           cy="-437.59375"
           r="3.3125" /><circle
           style="opacity:1;fill:url(#linearGradient6724);fill-opacity:1;stroke:none;stroke-width:1;stroke-linecap:butt;stroke-linejoin:miter;stroke-miterlimit:2;stroke-dasharray:none;stroke-dashoffset:0;stroke-opacity:1"
           id="path6710"
           transform="matrix(1.056604,0,0,1.056604,-31.19818,24.86331)"
           cx="288.375"
           cy="-437.59375"
           r="3.3125" /></g></g><g
       id="g3936"
       transform="matrix(0.53235482,0,0,0.50419859,11.642673,7.4406026)"><g
         style="opacity:0.7"
         id="g4091"><path
           style="fill:#fce94f;fill-opacity:1;stroke:#fcaf3e;stroke-width:0.737329;stroke-linecap:square;stroke-linejoin:miter;stroke-miterlimit:4;stroke-dasharray:none;stroke-opacity:1"
           d="M 24,2.5 21.625,9.1875 C 22.399034,9.0641318 23.191406,9 24,9 c 0.808594,0 1.600966,0.064132 2.375,0.1875 z m -15.1875,6.28125 3.03125,6.4375 c 0.935284,-1.290181 2.084819,-2.439716 3.375,-3.375 z m 30.40625,0 -6.4375,3.0625 c 1.290181,0.935284 2.439716,2.084819 3.375,3.375 z M 9.1875,21.59375 2.5,23.96875 l 6.6875,2.375 C 9.0673373,25.57952 9,24.797813 9,24 9,23.180625 9.0608858,22.377571 9.1875,21.59375 Z M 38.8125,21.625 C 38.935868,22.399034 39,23.191406 39,24 c 0,0.808594 -0.06413,1.600966 -0.1875,2.375 L 45.5,24 Z M 11.84375,32.78125 8.8125,39.1875 15.21875,36.15625 c -1.290181,-0.935284 -2.439716,-2.084819 -3.375,-3.375 z m 24.3125,0 c -0.926461,1.27801 -2.068633,2.413549 -3.34375,3.34375 l 6.40625,3.0625 z M 21.625,38.8125 24,45.5 26.375,38.8125 C 25.600966,38.935868 24.808594,39 24,39 23.191406,39 22.399034,38.93587 21.625,38.8125 Z"
           id="path7492" /><path
           style="fill:none;fill-opacity:1;stroke:url(#radialGradient4081);stroke-width:0.846462;stroke-linecap:square;stroke-linejoin:miter;stroke-miterlimit:4;stroke-dasharray:none;stroke-opacity:1"
           d="M 24,5.25 22.65625,9.0625 C 23.098888,9.0231486 23.547187,9 24,9 c 0.452813,0 0.901112,0.023149 1.34375,0.0625 z M 10.78125,10.75 12.5,14.375 c 0.571538,-0.680911 1.224004,-1.336255 1.90625,-1.90625 z m 26.46875,0 -3.625,1.71875 c 0.679675,0.569439 1.336811,1.226575 1.90625,1.90625 z M 9.0625,22.625 5.28125,23.96875 9.0625,25.3125 C 9.024981,24.880146 9,24.442031 9,24 9,23.536406 9.0212735,23.077908 9.0625,22.625 Z m 29.875,0.03125 C 38.976851,23.098888 39,23.547187 39,24 c 0,0.452813 -0.02315,0.901112 -0.0625,1.34375 L 42.71875,24 Z m -3.40625,10.9375 c -0.572957,0.68579 -1.221265,1.363613 -1.90625,1.9375 L 37.25,37.25 Z M 12.5,33.625 10.78125,37.21875 14.375,35.5 C 13.702932,34.935884 13.064116,34.297068 12.5,33.625 Z M 22.65625,38.9375 24,42.71875 25.34375,38.9375 C 24.901112,38.976851 24.452813,39 24,39 23.547187,39 23.098888,38.97685 22.65625,38.9375 Z"
           id="path7494" /></g><g
         id="g4046"><g
           id="g3931"><circle
             inkscape:r_cy="true"
             inkscape:r_cx="true"
             transform="matrix(0.778062,-1.061285,1.061287,0.778062,67.47952,3.641324)"
             id="path7498"
             style="fill:#ffee54;fill-opacity:1;stroke:#fcaf3e;stroke-width:0.759912;stroke-linecap:square;stroke-linejoin:miter;stroke-miterlimit:4;stroke-dasharray:none;stroke-opacity:1"
             cx="-32"
             cy="-17.5"
             r="9.5" /><circle
             inkscape:r_cy="true"
             inkscape:r_cx="true"
             transform="matrix(1.244257,-0.167707,0.216642,1.251844,67.61648,40.527)"
             id="path7500"
             style="fill:url(#radialGradient4020);fill-opacity:1;stroke:none;stroke-width:1.01738;stroke-linecap:square;stroke-linejoin:miter;stroke-miterlimit:4;stroke-dasharray:none;stroke-opacity:1"
             cx="-32"
             cy="-17.5"
             r="9.5" /><circle
             inkscape:r_cy="true"
             inkscape:r_cx="true"
             transform="matrix(0.715791,-0.976349,0.97635,0.715792,64.00044,5.269544)"
             id="path7502"
             style="fill:none;fill-opacity:1;stroke:url(#linearGradient3168);stroke-width:0.826019;stroke-linecap:square;stroke-linejoin:miter;stroke-miterlimit:4;stroke-dasharray:none;stroke-opacity:1"
             cx="-32"
             cy="-17.5"
             r="9.5" /></g></g></g><g
       id="g2085"
       transform="matrix(0.24288336,0,0,0.27256809,12.876526,27.156166)"><path
         id="path2055"
         stroke-linejoin="round"
         d="m 34.293,41.246 c -1.6558,-6.1815 -2.1609,-11.429 -1.4348,-13.809 0.7085,-2.3224 4.2235,0.65266 5.532,-3.1846 1.29,-3.782 -2.097,-23.092 -14.212,-23.205 -11.948,-0.11181 -14.198,19.9 -13.218,23.318 0.9634,3.3592 4.2214,0.86181 5.5326,2.6585 1.3113,1.7967 0.33864,9.95 -1.0159,14.749 -1.3378,4.7391 4.9953,5.9516 9.7408,5.8393 4.7455,-0.11229 10.683,-0.36427 9.0758,-6.3658 z"
         fill-rule="evenodd"
         stroke="#2e3436"
         stroke-width="1.066"
         fill="#eeeeec" /><path
         id="path2057"
         d="m 31.762,29.157 c -5.6015,0.94154 -9.5686,0.69978 -13.845,0.43182 0.06905,3.5113 -0.65682,8.9282 -1.6769,12.827 -0.09738,0.37224 -0.09194,0.54408 -0.0766,0.67006 0.01534,0.12598 0.05496,0.28158 0.20081,0.51744 0.2917,0.47172 0.99943,1.0559 1.9315,1.463 1.8641,0.81411 4.5821,1.09 6.9124,1.0349 2.3691,-0.05606 5.0189,-0.18011 6.7302,-0.93437 0.85562,-0.37713 1.4349,-0.94592 1.6375,-1.3811 0.20261,-0.43516 0.27368,-0.71509 -0.03933,-1.8836 -0.0021,-0.0062 -0.0042,-0.01238 -0.0062,-0.01861 -1.2567,-4.8864 -1.8067,-9.3857 -1.7679,-12.727 z"
         stroke="#ffffff"
         stroke-width="1.066"
         fill="none" /><path
         id="path2059"
         opacity="0.55128"
         d="m 34.293,34.866 c -1.6558,-6.1815 -2.1609,-5.0489 -1.4348,-7.4292 0.7085,-2.3224 4.2235,0.65266 5.532,-3.1846 1.29,-3.782 -2.097,-23.092 -14.212,-23.205 -11.948,-0.11181 -14.198,19.9 -13.218,23.318 0.9634,3.3592 4.2214,0.86181 5.5326,2.6585 1.3113,1.7967 0.33864,3.5701 -1.0159,8.3687 -1.3378,4.7391 4.6957,1.7762 9.4412,1.6639 4.7455,-0.11229 10.983,3.8111 9.3754,-2.1904 z"
         fill-rule="evenodd"
         fill="url(#radialGradient3293)"
         style="fill:url(#radialGradient2087)" /><g
         id="g2081"
         transform="matrix(0.10593,0,0,0.11912,2.1901,0.80831)"><path
           id="path2061"
           stroke-linejoin="round"
           d="m 303.55,227.32 c 40.313,-4.824 95.86,1.7018 115.61,-30.511 C 438.63,165.049 387.5,2.959 204.62,1.999 24.26,1.0641 -9.71,169.059 5.09,197.759 c 14.543,28.2 74.884,30.192 111.84,31.76 36.929,1.5668 146.92,2.5512 186.61,-2.1985 z"
           fill-rule="evenodd"
           stroke="#780000"
           stroke-width="12"
           fill="url(#radialGradient2989)"
           style="fill:url(#radialGradient2089)" /><path
           id="path2063"
           d="m 72.617,124.5 c -4.7749,14.674 -15.876,24.218 -24.791,21.314 -8.9148,-2.9038 -12.265,-17.155 -7.4813,-31.826 4.7749,-14.674 15.876,-24.218 24.791,-21.314 8.9148,2.9038 12.265,17.155 7.4813,31.826 z"
           fill="#ffffff" /><path
           id="path2065"
           d="m 145.64,80.871 c -9.4522,10.458 -24.257,12.689 -33.062,4.9806 -8.8047,-7.708 -8.2727,-22.433 1.1881,-32.884 9.4522,-10.458 24.257,-12.689 33.062,-4.9806 8.8047,7.708 8.2727,22.433 -1.1881,32.884 z"
           fill="#ffffff" /><path
           id="path2067"
           d="m 282.76,129.11 c 5.4732,14.381 -4.8225,28.276 -22.992,31.03 -18.17,2.7547 -37.328,-6.6751 -42.783,-21.058 -5.4732,-14.381 4.8225,-28.276 22.992,-31.03 18.17,-2.7547 37.328,6.6751 42.783,21.058 z"
           fill="#ffffff" /><path
           id="path2069"
           d="m 306.81,38.724 c 11.203,8.8184 10.936,17.049 -0.59708,18.38 -11.533,1.3312 -29.961,-4.7413 -41.154,-13.561 -11.203,-8.8184 -10.936,-17.049 0.59707,-18.38 11.533,-1.3312 29.961,4.7413 41.154,13.561 z"
           fill="#ffffff" /><path
           id="path2071"
           d="m 374.03,167.81 c -4.6433,13.78 -16.084,17.377 -25.549,8.0318 -9.4651,-9.345 -13.368,-28.09 -8.7152,-41.861 4.6433,-13.78 16.084,-17.377 25.549,-8.0318 9.4651,9.345 13.368,28.09 8.7152,41.861 z"
           fill="#ffffff" /><path
           id="path2073"
           d="m 167.42,169.44 c 6.2691,15.601 -0.53087,33.322 -15.185,39.576 -14.655,6.2534 -31.61,-1.3314 -37.865,-16.938 -6.2691,-15.601 0.53086,-33.322 15.185,-39.576 14.655,-6.2534 31.61,1.3314 37.865,16.938 z"
           fill="#ffffff" /><path
           id="path2075"
           d="m 213.4,73.159 c -1.5402,6.5399 -8.6252,11.423 -15.822,10.905 -7.1967,-0.51787 -11.778,-6.2407 -10.231,-12.78 1.5402,-6.5399 8.6252,-11.423 15.822,-10.905 7.1967,0.51788 11.778,6.2407 10.231,12.78 z"
           fill="#ffffff" /><path
           id="path2077"
           d="m 331.07,87.891 c 0.85635,6.2929 -2.9226,9.9196 -8.4391,8.0991 -5.5165,-1.8205 -10.68,-8.3983 -11.531,-14.689 -0.85635,-6.2929 2.9226,-9.9196 8.4391,-8.0991 5.5165,1.8205 10.68,8.3983 11.531,14.689 z"
           fill="#ffffff" /><path
           id="path2079"
           opacity="0.66239"
           stroke-linejoin="round"
           d="M 204.56,14.625 C 118.31,14.176 69.6,53.079 42.31,95.594 28.667,116.85 20.681,139.13 17.062,157.38 c -3.6188,18.243 -1.2478,33.628 -0.75,34.594 4.0675,7.8872 18.629,15.338 38.719,19.281 20.09,3.943 43.895,4.8695 62.438,5.6562 36.087,1.5311 147.8,2.2739 184.56,-2.125 21.504,-2.5732 45.328,-2.1444 65.281,-4.9375 19.953,-2.7931 34.174,-8.3398 41.094,-19.625 1.0787,-1.7592 3.3826,-16.131 -1.0938,-34.062 -4.4763,-17.931 -14.073,-39.814 -29.656,-60.75 -31.16,-41.878 -85.37,-80.329 -173.09,-80.786 z"
           stroke="#ffffff"
           stroke-width="12"
           fill="none" /></g><path
         id="path2083"
         style="color:#000000;fill:url(#radialGradient964)"
         d="m 39.775,19.009 a 8.6621,8.6621 0 1 1 -17.324,0 8.6621,8.6621 0 1 1 17.324,0 z"
         fill-rule="evenodd"
         transform="matrix(1.7554,0,0,0.94834,-19.411,28.791)"
         fill="url(#radialGradient2243)" /></g><g
       id="g2233"
       transform="matrix(0.24288336,0,0,0.27256809,4.9079071,19.282414)"><path
         id="path2203"
         stroke-linejoin="round"
         d="m 34.293,41.246 c -1.6558,-6.1815 -2.1609,-11.429 -1.4348,-13.809 0.7085,-2.3224 4.2235,0.65266 5.532,-3.1846 1.29,-3.782 -2.097,-23.092 -14.212,-23.205 -11.948,-0.11181 -14.198,19.9 -13.218,23.318 0.9634,3.3592 4.2214,0.86181 5.5326,2.6585 1.3113,1.7967 0.33864,9.95 -1.0159,14.749 -1.3378,4.7391 4.9953,5.9516 9.7408,5.8393 4.7455,-0.11229 10.683,-0.36427 9.0758,-6.3658 z"
         fill-rule="evenodd"
         stroke="#2e3436"
         stroke-width="1.066"
         fill="#eeeeec" /><path
         id="path2205"
         d="m 31.762,29.157 c -5.6015,0.94154 -9.5686,0.69978 -13.845,0.43182 0.06905,3.5113 -0.65682,8.9282 -1.6769,12.827 -0.09738,0.37224 -0.09194,0.54408 -0.0766,0.67006 0.01534,0.12598 0.05496,0.28158 0.20081,0.51744 0.2917,0.47172 0.99943,1.0559 1.9315,1.463 1.8641,0.81411 4.5821,1.09 6.9124,1.0349 2.3691,-0.05606 5.0189,-0.18011 6.7302,-0.93437 0.85562,-0.37713 1.4349,-0.94592 1.6375,-1.3811 0.20261,-0.43516 0.27368,-0.71509 -0.03933,-1.8836 -0.0021,-0.0062 -0.0042,-0.01238 -0.0062,-0.01861 -1.2567,-4.8864 -1.8067,-9.3857 -1.7679,-12.727 z"
         stroke="#ffffff"
         stroke-width="1.066"
         fill="none" /><path
         id="path2207"
         opacity="0.55128"
         d="m 34.293,34.866 c -1.6558,-6.1815 -2.1609,-5.0489 -1.4348,-7.4292 0.7085,-2.3224 4.2235,0.65266 5.532,-3.1846 1.29,-3.782 -2.097,-23.092 -14.212,-23.205 -11.948,-0.11181 -14.198,19.9 -13.218,23.318 0.9634,3.3592 4.2214,0.86181 5.5326,2.6585 1.3113,1.7967 0.33864,3.5701 -1.0159,8.3687 -1.3378,4.7391 4.6957,1.7762 9.4412,1.6639 4.7455,-0.11229 10.983,3.8111 9.3754,-2.1904 z"
         fill-rule="evenodd"
         fill="url(#radialGradient3293)"
         style="fill:url(#radialGradient2235)" /><g
         id="g2229"
         transform="matrix(0.10593,0,0,0.11912,2.1901,0.80831)"><path
           id="path2209"
           stroke-linejoin="round"
           d="m 303.55,227.32 c 40.313,-4.824 95.86,1.7018 115.61,-30.511 C 438.63,165.049 387.5,2.959 204.62,1.999 24.26,1.0641 -9.71,169.059 5.09,197.759 c 14.543,28.2 74.884,30.192 111.84,31.76 36.929,1.5668 146.92,2.5512 186.61,-2.1985 z"
           fill-rule="evenodd"
           stroke="#780000"
           stroke-width="12"
           fill="url(#radialGradient2989)"
           style="fill:url(#radialGradient2237)" /><path
           id="path2211"
           d="m 72.617,124.5 c -4.7749,14.674 -15.876,24.218 -24.791,21.314 -8.9148,-2.9038 -12.265,-17.155 -7.4813,-31.826 4.7749,-14.674 15.876,-24.218 24.791,-21.314 8.9148,2.9038 12.265,17.155 7.4813,31.826 z"
           fill="#ffffff" /><path
           id="path2213"
           d="m 145.64,80.871 c -9.4522,10.458 -24.257,12.689 -33.062,4.9806 -8.8047,-7.708 -8.2727,-22.433 1.1881,-32.884 9.4522,-10.458 24.257,-12.689 33.062,-4.9806 8.8047,7.708 8.2727,22.433 -1.1881,32.884 z"
           fill="#ffffff" /><path
           id="path2215"
           d="m 282.76,129.11 c 5.4732,14.381 -4.8225,28.276 -22.992,31.03 -18.17,2.7547 -37.328,-6.6751 -42.783,-21.058 -5.4732,-14.381 4.8225,-28.276 22.992,-31.03 18.17,-2.7547 37.328,6.6751 42.783,21.058 z"
           fill="#ffffff" /><path
           id="path2217"
           d="m 306.81,38.724 c 11.203,8.8184 10.936,17.049 -0.59708,18.38 -11.533,1.3312 -29.961,-4.7413 -41.154,-13.561 -11.203,-8.8184 -10.936,-17.049 0.59707,-18.38 11.533,-1.3312 29.961,4.7413 41.154,13.561 z"
           fill="#ffffff" /><path
           id="path2219"
           d="m 374.03,167.81 c -4.6433,13.78 -16.084,17.377 -25.549,8.0318 -9.4651,-9.345 -13.368,-28.09 -8.7152,-41.861 4.6433,-13.78 16.084,-17.377 25.549,-8.0318 9.4651,9.345 13.368,28.09 8.7152,41.861 z"
           fill="#ffffff" /><path
           id="path2221"
           d="m 167.42,169.44 c 6.2691,15.601 -0.53087,33.322 -15.185,39.576 -14.655,6.2534 -31.61,-1.3314 -37.865,-16.938 -6.2691,-15.601 0.53086,-33.322 15.185,-39.576 14.655,-6.2534 31.61,1.3314 37.865,16.938 z"
           fill="#ffffff" /><path
           id="path2223"
           d="m 213.4,73.159 c -1.5402,6.5399 -8.6252,11.423 -15.822,10.905 -7.1967,-0.51787 -11.778,-6.2407 -10.231,-12.78 1.5402,-6.5399 8.6252,-11.423 15.822,-10.905 7.1967,0.51788 11.778,6.2407 10.231,12.78 z"
           fill="#ffffff" /><path
           id="path2225"
           d="m 331.07,87.891 c 0.85635,6.2929 -2.9226,9.9196 -8.4391,8.0991 -5.5165,-1.8205 -10.68,-8.3983 -11.531,-14.689 -0.85635,-6.2929 2.9226,-9.9196 8.4391,-8.0991 5.5165,1.8205 10.68,8.3983 11.531,14.689 z"
           fill="#ffffff" /><path
           id="path2227"
           opacity="0.66239"
           stroke-linejoin="round"
           d="M 204.56,14.625 C 118.31,14.176 69.6,53.079 42.31,95.594 28.667,116.85 20.681,139.13 17.062,157.38 c -3.6188,18.243 -1.2478,33.628 -0.75,34.594 4.0675,7.8872 18.629,15.338 38.719,19.281 20.09,3.943 43.895,4.8695 62.438,5.6562 36.087,1.5311 147.8,2.2739 184.56,-2.125 21.504,-2.5732 45.328,-2.1444 65.281,-4.9375 19.953,-2.7931 34.174,-8.3398 41.094,-19.625 1.0787,-1.7592 3.3826,-16.131 -1.0938,-34.062 -4.4763,-17.931 -14.073,-39.814 -29.656,-60.75 -31.16,-41.878 -85.37,-80.329 -173.09,-80.786 z"
           stroke="#ffffff"
           stroke-width="12"
           fill="none" /></g><path
         id="path2231"
         style="color:#000000;fill:url(#radialGradient964)"
         d="m 39.775,19.009 a 8.6621,8.6621 0 1 1 -17.324,0 8.6621,8.6621 0 1 1 17.324,0 z"
         fill-rule="evenodd"
         transform="matrix(1.7554,0,0,0.94834,-19.411,28.791)"
         fill="url(#radialGradient2243)" /></g><g
       id="g2269"
       transform="matrix(0.24288336,0,0,0.27256809,24.165403,27.156168)"><path
         id="path2239"
         stroke-linejoin="round"
         d="m 34.293,41.246 c -1.6558,-6.1815 -2.1609,-11.429 -1.4348,-13.809 0.7085,-2.3224 4.2235,0.65266 5.532,-3.1846 1.29,-3.782 -2.097,-23.092 -14.212,-23.205 -11.948,-0.11181 -14.198,19.9 -13.218,23.318 0.9634,3.3592 4.2214,0.86181 5.5326,2.6585 1.3113,1.7967 0.33864,9.95 -1.0159,14.749 -1.3378,4.7391 4.9953,5.9516 9.7408,5.8393 4.7455,-0.11229 10.683,-0.36427 9.0758,-6.3658 z"
         fill-rule="evenodd"
         stroke="#2e3436"
         stroke-width="1.066"
         fill="#eeeeec" /><path
         id="path2241"
         d="m 31.762,29.157 c -5.6015,0.94154 -9.5686,0.69978 -13.845,0.43182 0.06905,3.5113 -0.65682,8.9282 -1.6769,12.827 -0.09738,0.37224 -0.09194,0.54408 -0.0766,0.67006 0.01534,0.12598 0.05496,0.28158 0.20081,0.51744 0.2917,0.47172 0.99943,1.0559 1.9315,1.463 1.8641,0.81411 4.5821,1.09 6.9124,1.0349 2.3691,-0.05606 5.0189,-0.18011 6.7302,-0.93437 0.85562,-0.37713 1.4349,-0.94592 1.6375,-1.3811 0.20261,-0.43516 0.27368,-0.71509 -0.03933,-1.8836 -0.0021,-0.0062 -0.0042,-0.01238 -0.0062,-0.01861 -1.2567,-4.8864 -1.8067,-9.3857 -1.7679,-12.727 z"
         stroke="#ffffff"
         stroke-width="1.066"
         fill="none" /><path
         id="path2243"
         opacity="0.55128"
         d="m 34.293,34.866 c -1.6558,-6.1815 -2.1609,-5.0489 -1.4348,-7.4292 0.7085,-2.3224 4.2235,0.65266 5.532,-3.1846 1.29,-3.782 -2.097,-23.092 -14.212,-23.205 -11.948,-0.11181 -14.198,19.9 -13.218,23.318 0.9634,3.3592 4.2214,0.86181 5.5326,2.6585 1.3113,1.7967 0.33864,3.5701 -1.0159,8.3687 -1.3378,4.7391 4.6957,1.7762 9.4412,1.6639 4.7455,-0.11229 10.983,3.8111 9.3754,-2.1904 z"
         fill-rule="evenodd"
         fill="url(#radialGradient3293)"
         style="fill:url(#radialGradient2271)" /><g
         id="g2265"
         transform="matrix(0.10593,0,0,0.11912,2.1901,0.80831)"><path
           id="path2245"
           stroke-linejoin="round"
           d="m 303.55,227.32 c 40.313,-4.824 95.86,1.7018 115.61,-30.511 C 438.63,165.049 387.5,2.959 204.62,1.999 24.26,1.0641 -9.71,169.059 5.09,197.759 c 14.543,28.2 74.884,30.192 111.84,31.76 36.929,1.5668 146.92,2.5512 186.61,-2.1985 z"
           fill-rule="evenodd"
           stroke="#780000"
           stroke-width="12"
           fill="url(#radialGradient2989)"
           style="fill:url(#radialGradient2273)" /><path
           id="path2247"
           d="m 72.617,124.5 c -4.7749,14.674 -15.876,24.218 -24.791,21.314 -8.9148,-2.9038 -12.265,-17.155 -7.4813,-31.826 4.7749,-14.674 15.876,-24.218 24.791,-21.314 8.9148,2.9038 12.265,17.155 7.4813,31.826 z"
           fill="#ffffff" /><path
           id="path2249"
           d="m 145.64,80.871 c -9.4522,10.458 -24.257,12.689 -33.062,4.9806 -8.8047,-7.708 -8.2727,-22.433 1.1881,-32.884 9.4522,-10.458 24.257,-12.689 33.062,-4.9806 8.8047,7.708 8.2727,22.433 -1.1881,32.884 z"
           fill="#ffffff" /><path
           id="path2251"
           d="m 282.76,129.11 c 5.4732,14.381 -4.8225,28.276 -22.992,31.03 -18.17,2.7547 -37.328,-6.6751 -42.783,-21.058 -5.4732,-14.381 4.8225,-28.276 22.992,-31.03 18.17,-2.7547 37.328,6.6751 42.783,21.058 z"
           fill="#ffffff" /><path
           id="path2253"
           d="m 306.81,38.724 c 11.203,8.8184 10.936,17.049 -0.59708,18.38 -11.533,1.3312 -29.961,-4.7413 -41.154,-13.561 -11.203,-8.8184 -10.936,-17.049 0.59707,-18.38 11.533,-1.3312 29.961,4.7413 41.154,13.561 z"
           fill="#ffffff" /><path
           id="path2255"
           d="m 374.03,167.81 c -4.6433,13.78 -16.084,17.377 -25.549,8.0318 -9.4651,-9.345 -13.368,-28.09 -8.7152,-41.861 4.6433,-13.78 16.084,-17.377 25.549,-8.0318 9.4651,9.345 13.368,28.09 8.7152,41.861 z"
           fill="#ffffff" /><path
           id="path2257"
           d="m 167.42,169.44 c 6.2691,15.601 -0.53087,33.322 -15.185,39.576 -14.655,6.2534 -31.61,-1.3314 -37.865,-16.938 -6.2691,-15.601 0.53086,-33.322 15.185,-39.576 14.655,-6.2534 31.61,1.3314 37.865,16.938 z"
           fill="#ffffff" /><path
           id="path2259"
           d="m 213.4,73.159 c -1.5402,6.5399 -8.6252,11.423 -15.822,10.905 -7.1967,-0.51787 -11.778,-6.2407 -10.231,-12.78 1.5402,-6.5399 8.6252,-11.423 15.822,-10.905 7.1967,0.51788 11.778,6.2407 10.231,12.78 z"
           fill="#ffffff" /><path
           id="path2261"
           d="m 331.07,87.891 c 0.85635,6.2929 -2.9226,9.9196 -8.4391,8.0991 -5.5165,-1.8205 -10.68,-8.3983 -11.531,-14.689 -0.85635,-6.2929 2.9226,-9.9196 8.4391,-8.0991 5.5165,1.8205 10.68,8.3983 11.531,14.689 z"
           fill="#ffffff" /><path
           id="path2263"
           opacity="0.66239"
           stroke-linejoin="round"
           d="M 204.56,14.625 C 118.31,14.176 69.6,53.079 42.31,95.594 28.667,116.85 20.681,139.13 17.062,157.38 c -3.6188,18.243 -1.2478,33.628 -0.75,34.594 4.0675,7.8872 18.629,15.338 38.719,19.281 20.09,3.943 43.895,4.8695 62.438,5.6562 36.087,1.5311 147.8,2.2739 184.56,-2.125 21.504,-2.5732 45.328,-2.1444 65.281,-4.9375 19.953,-2.7931 34.174,-8.3398 41.094,-19.625 1.0787,-1.7592 3.3826,-16.131 -1.0938,-34.062 -4.4763,-17.931 -14.073,-39.814 -29.656,-60.75 -31.16,-41.878 -85.37,-80.329 -173.09,-80.786 z"
           stroke="#ffffff"
           stroke-width="12"
           fill="none" /></g><path
         id="path2267"
         style="color:#000000;fill:url(#radialGradient964)"
         d="m 39.775,19.009 a 8.6621,8.6621 0 1 1 -17.324,0 8.6621,8.6621 0 1 1 17.324,0 z"
         fill-rule="evenodd"
         transform="matrix(1.7554,0,0,0.94834,-19.411,28.791)"
         fill="url(#radialGradient2243)" /></g><g
       id="g2305"
       transform="matrix(0.24288336,0,0,0.27256809,32.134022,19.567006)"><path
         id="path2275"
         stroke-linejoin="round"
         d="m 34.293,41.246 c -1.6558,-6.1815 -2.1609,-11.429 -1.4348,-13.809 0.7085,-2.3224 4.2235,0.65266 5.532,-3.1846 1.29,-3.782 -2.097,-23.092 -14.212,-23.205 -11.948,-0.11181 -14.198,19.9 -13.218,23.318 0.9634,3.3592 4.2214,0.86181 5.5326,2.6585 1.3113,1.7967 0.33864,9.95 -1.0159,14.749 -1.3378,4.7391 4.9953,5.9516 9.7408,5.8393 4.7455,-0.11229 10.683,-0.36427 9.0758,-6.3658 z"
         fill-rule="evenodd"
         stroke="#2e3436"
         stroke-width="1.066"
         fill="#eeeeec" /><path
         id="path2277"
         d="m 31.762,29.157 c -5.6015,0.94154 -9.5686,0.69978 -13.845,0.43182 0.06905,3.5113 -0.65682,8.9282 -1.6769,12.827 -0.09738,0.37224 -0.09194,0.54408 -0.0766,0.67006 0.01534,0.12598 0.05496,0.28158 0.20081,0.51744 0.2917,0.47172 0.99943,1.0559 1.9315,1.463 1.8641,0.81411 4.5821,1.09 6.9124,1.0349 2.3691,-0.05606 5.0189,-0.18011 6.7302,-0.93437 0.85562,-0.37713 1.4349,-0.94592 1.6375,-1.3811 0.20261,-0.43516 0.27368,-0.71509 -0.03933,-1.8836 -0.0021,-0.0062 -0.0042,-0.01238 -0.0062,-0.01861 -1.2567,-4.8864 -1.8067,-9.3857 -1.7679,-12.727 z"
         stroke="#ffffff"
         stroke-width="1.066"
         fill="none" /><path
         id="path2279"
         opacity="0.55128"
         d="m 34.293,34.866 c -1.6558,-6.1815 -2.1609,-5.0489 -1.4348,-7.4292 0.7085,-2.3224 4.2235,0.65266 5.532,-3.1846 1.29,-3.782 -2.097,-23.092 -14.212,-23.205 -11.948,-0.11181 -14.198,19.9 -13.218,23.318 0.9634,3.3592 4.2214,0.86181 5.5326,2.6585 1.3113,1.7967 0.33864,3.5701 -1.0159,8.3687 -1.3378,4.7391 4.6957,1.7762 9.4412,1.6639 4.7455,-0.11229 10.983,3.8111 9.3754,-2.1904 z"
         fill-rule="evenodd"
         fill="url(#radialGradient3293)"
         style="fill:url(#radialGradient2307)" /><g
         id="g2301"
         transform="matrix(0.10593,0,0,0.11912,2.1901,0.80831)"><path
           id="path2281"
           stroke-linejoin="round"
           d="m 303.55,227.32 c 40.313,-4.824 95.86,1.7018 115.61,-30.511 C 438.63,165.049 387.5,2.959 204.62,1.999 24.26,1.0641 -9.71,169.059 5.09,197.759 c 14.543,28.2 74.884,30.192 111.84,31.76 36.929,1.5668 146.92,2.5512 186.61,-2.1985 z"
           fill-rule="evenodd"
           stroke="#780000"
           stroke-width="12"
           fill="url(#radialGradient2989)"
           style="fill:url(#radialGradient2309)" /><path
           id="path2283"
           d="m 72.617,124.5 c -4.7749,14.674 -15.876,24.218 -24.791,21.314 -8.9148,-2.9038 -12.265,-17.155 -7.4813,-31.826 4.7749,-14.674 15.876,-24.218 24.791,-21.314 8.9148,2.9038 12.265,17.155 7.4813,31.826 z"
           fill="#ffffff" /><path
           id="path2285"
           d="m 145.64,80.871 c -9.4522,10.458 -24.257,12.689 -33.062,4.9806 -8.8047,-7.708 -8.2727,-22.433 1.1881,-32.884 9.4522,-10.458 24.257,-12.689 33.062,-4.9806 8.8047,7.708 8.2727,22.433 -1.1881,32.884 z"
           fill="#ffffff" /><path
           id="path2287"
           d="m 282.76,129.11 c 5.4732,14.381 -4.8225,28.276 -22.992,31.03 -18.17,2.7547 -37.328,-6.6751 -42.783,-21.058 -5.4732,-14.381 4.8225,-28.276 22.992,-31.03 18.17,-2.7547 37.328,6.6751 42.783,21.058 z"
           fill="#ffffff" /><path
           id="path2289"
           d="m 306.81,38.724 c 11.203,8.8184 10.936,17.049 -0.59708,18.38 -11.533,1.3312 -29.961,-4.7413 -41.154,-13.561 -11.203,-8.8184 -10.936,-17.049 0.59707,-18.38 11.533,-1.3312 29.961,4.7413 41.154,13.561 z"
           fill="#ffffff" /><path
           id="path2291"
           d="m 374.03,167.81 c -4.6433,13.78 -16.084,17.377 -25.549,8.0318 -9.4651,-9.345 -13.368,-28.09 -8.7152,-41.861 4.6433,-13.78 16.084,-17.377 25.549,-8.0318 9.4651,9.345 13.368,28.09 8.7152,41.861 z"
           fill="#ffffff" /><path
           id="path2293"
           d="m 167.42,169.44 c 6.2691,15.601 -0.53087,33.322 -15.185,39.576 -14.655,6.2534 -31.61,-1.3314 -37.865,-16.938 -6.2691,-15.601 0.53086,-33.322 15.185,-39.576 14.655,-6.2534 31.61,1.3314 37.865,16.938 z"
           fill="#ffffff" /><path
           id="path2295"
           d="m 213.4,73.159 c -1.5402,6.5399 -8.6252,11.423 -15.822,10.905 -7.1967,-0.51787 -11.778,-6.2407 -10.231,-12.78 1.5402,-6.5399 8.6252,-11.423 15.822,-10.905 7.1967,0.51788 11.778,6.2407 10.231,12.78 z"
           fill="#ffffff" /><path
           id="path2297"
           d="m 331.07,87.891 c 0.85635,6.2929 -2.9226,9.9196 -8.4391,8.0991 -5.5165,-1.8205 -10.68,-8.3983 -11.531,-14.689 -0.85635,-6.2929 2.9226,-9.9196 8.4391,-8.0991 5.5165,1.8205 10.68,8.3983 11.531,14.689 z"
           fill="#ffffff" /><path
           id="path2299"
           opacity="0.66239"
           stroke-linejoin="round"
           d="M 204.56,14.625 C 118.31,14.176 69.6,53.079 42.31,95.594 28.667,116.85 20.681,139.13 17.062,157.38 c -3.6188,18.243 -1.2478,33.628 -0.75,34.594 4.0675,7.8872 18.629,15.338 38.719,19.281 20.09,3.943 43.895,4.8695 62.438,5.6562 36.087,1.5311 147.8,2.2739 184.56,-2.125 21.504,-2.5732 45.328,-2.1444 65.281,-4.9375 19.953,-2.7931 34.174,-8.3398 41.094,-19.625 1.0787,-1.7592 3.3826,-16.131 -1.0938,-34.062 -4.4763,-17.931 -14.073,-39.814 -29.656,-60.75 -31.16,-41.878 -85.37,-80.329 -173.09,-80.786 z"
           stroke="#ffffff"
           stroke-width="12"
           fill="none" /></g><path
         id="path2303"
         style="color:#000000;fill:url(#radialGradient964)"
         d="m 39.775,19.009 a 8.6621,8.6621 0 1 1 -17.324,0 8.6621,8.6621 0 1 1 17.324,0 z"
         fill-rule="evenodd"
         transform="matrix(1.7554,0,0,0.94834,-19.411,28.791)"
         fill="url(#radialGradient2243)" /></g><g
       aria-label="Jh"
       id="text2365"
       style="font-family:'Liberation Serif';-inkscape-font-specification:'Liberation Serif';fill:#008080;stroke:url(#linearGradient2693);stroke-width:0"
       transform="translate(0.66405157,0.28459353)"><path
         d="m 20.616329,15.847273 -1.007812,-0.152344 v -0.310547 h 3.023437 v 0.310547 l -0.890625,0.152344 v 4.863281 q 0,0.785156 -0.240234,1.376953 -0.240235,0.585938 -0.732422,0.931641 -0.486328,0.339844 -1.089844,0.339844 -0.75,0 -1.21289,-0.175782 v -1.429687 h 0.386718 l 0.175782,0.814453 q 0.111328,0.134766 0.316406,0.210937 0.205078,0.07617 0.451172,0.07617 0.820312,0 0.820312,-1.113281 z"
         id="path2797"
         style="stroke:url(#linearGradient2832)" /><path
         d="m 24.794064,17.300398 q 0,0.609375 -0.04102,0.878906 0.421875,-0.240234 0.955078,-0.416016 0.539063,-0.175781 0.908203,-0.175781 0.714844,0 1.078125,0.416016 0.363281,0.416015 0.363281,1.207031 v 3.621094 l 0.667969,0.146484 v 0.263672 h -2.373047 v -0.263672 l 0.732422,-0.146484 v -3.550781 q 0,-1.007813 -0.972656,-1.007813 -0.550781,0 -1.318359,0.169922 v 4.388672 l 0.74414,0.146484 v 0.263672 h -2.414062 v -0.263672 l 0.697265,-0.146484 v -7.511719 l -0.820312,-0.140625 v -0.263672 h 1.792969 z"
         id="path2799"
         style="stroke:url(#linearGradient2834)" /></g><g
       id="g2866"
       transform="matrix(0.1336162,0,0,0.179128,21.322834,35.057027)"><path
         id="path2836"
         stroke-linejoin="round"
         d="m 34.293,41.246 c -1.6558,-6.1815 -2.1609,-11.429 -1.4348,-13.809 0.7085,-2.3224 4.2235,0.65266 5.532,-3.1846 1.29,-3.782 -2.097,-23.092 -14.212,-23.205 -11.948,-0.11181 -14.198,19.9 -13.218,23.318 0.9634,3.3592 4.2214,0.86181 5.5326,2.6585 1.3113,1.7967 0.33864,9.95 -1.0159,14.749 -1.3378,4.7391 4.9953,5.9516 9.7408,5.8393 4.7455,-0.11229 10.683,-0.36427 9.0758,-6.3658 z"
         fill-rule="evenodd"
         stroke="#2e3436"
         stroke-width="1.066"
         fill="#eeeeec" /><path
         id="path2838"
         d="m 31.762,29.157 c -5.6015,0.94154 -9.5686,0.69978 -13.845,0.43182 0.06905,3.5113 -0.65682,8.9282 -1.6769,12.827 -0.09738,0.37224 -0.09194,0.54408 -0.0766,0.67006 0.01534,0.12598 0.05496,0.28158 0.20081,0.51744 0.2917,0.47172 0.99943,1.0559 1.9315,1.463 1.8641,0.81411 4.5821,1.09 6.9124,1.0349 2.3691,-0.05606 5.0189,-0.18011 6.7302,-0.93437 0.85562,-0.37713 1.4349,-0.94592 1.6375,-1.3811 0.20261,-0.43516 0.27368,-0.71509 -0.03933,-1.8836 -0.0021,-0.0062 -0.0042,-0.01238 -0.0062,-0.01861 -1.2567,-4.8864 -1.8067,-9.3857 -1.7679,-12.727 z"
         stroke="#ffffff"
         stroke-width="1.066"
         fill="none" /><path
         id="path2840"
         opacity="0.55128"
         d="m 34.293,34.866 c -1.6558,-6.1815 -2.1609,-5.0489 -1.4348,-7.4292 0.7085,-2.3224 4.2235,0.65266 5.532,-3.1846 1.29,-3.782 -2.097,-23.092 -14.212,-23.205 -11.948,-0.11181 -14.198,19.9 -13.218,23.318 0.9634,3.3592 4.2214,0.86181 5.5326,2.6585 1.3113,1.7967 0.33864,3.5701 -1.0159,8.3687 -1.3378,4.7391 4.6957,1.7762 9.4412,1.6639 4.7455,-0.11229 10.983,3.8111 9.3754,-2.1904 z"
         fill-rule="evenodd"
         fill="url(#radialGradient3293)"
         style="fill:url(#radialGradient2868)" /><g
         id="g2862"
         transform="matrix(0.10593,0,0,0.11912,2.1901,0.80831)"><path
           id="path2842"
           stroke-linejoin="round"
           d="m 303.55,227.32 c 40.313,-4.824 95.86,1.7018 115.61,-30.511 C 438.63,165.049 387.5,2.959 204.62,1.999 24.26,1.0641 -9.71,169.059 5.09,197.759 c 14.543,28.2 74.884,30.192 111.84,31.76 36.929,1.5668 146.92,2.5512 186.61,-2.1985 z"
           fill-rule="evenodd"
           stroke="#780000"
           stroke-width="12"
           fill="url(#radialGradient2989)"
           style="fill:url(#radialGradient2870)" /><path
           id="path2844"
           d="m 72.617,124.5 c -4.7749,14.674 -15.876,24.218 -24.791,21.314 -8.9148,-2.9038 -12.265,-17.155 -7.4813,-31.826 4.7749,-14.674 15.876,-24.218 24.791,-21.314 8.9148,2.9038 12.265,17.155 7.4813,31.826 z"
           fill="#ffffff" /><path
           id="path2846"
           d="m 145.64,80.871 c -9.4522,10.458 -24.257,12.689 -33.062,4.9806 -8.8047,-7.708 -8.2727,-22.433 1.1881,-32.884 9.4522,-10.458 24.257,-12.689 33.062,-4.9806 8.8047,7.708 8.2727,22.433 -1.1881,32.884 z"
           fill="#ffffff" /><path
           id="path2848"
           d="m 282.76,129.11 c 5.4732,14.381 -4.8225,28.276 -22.992,31.03 -18.17,2.7547 -37.328,-6.6751 -42.783,-21.058 -5.4732,-14.381 4.8225,-28.276 22.992,-31.03 18.17,-2.7547 37.328,6.6751 42.783,21.058 z"
           fill="#ffffff" /><path
           id="path2850"
           d="m 306.81,38.724 c 11.203,8.8184 10.936,17.049 -0.59708,18.38 -11.533,1.3312 -29.961,-4.7413 -41.154,-13.561 -11.203,-8.8184 -10.936,-17.049 0.59707,-18.38 11.533,-1.3312 29.961,4.7413 41.154,13.561 z"
           fill="#ffffff" /><path
           id="path2852"
           d="m 374.03,167.81 c -4.6433,13.78 -16.084,17.377 -25.549,8.0318 -9.4651,-9.345 -13.368,-28.09 -8.7152,-41.861 4.6433,-13.78 16.084,-17.377 25.549,-8.0318 9.4651,9.345 13.368,28.09 8.7152,41.861 z"
           fill="#ffffff" /><path
           id="path2854"
           d="m 167.42,169.44 c 6.2691,15.601 -0.53087,33.322 -15.185,39.576 -14.655,6.2534 -31.61,-1.3314 -37.865,-16.938 -6.2691,-15.601 0.53086,-33.322 15.185,-39.576 14.655,-6.2534 31.61,1.3314 37.865,16.938 z"
           fill="#ffffff" /><path
           id="path2856"
           d="m 213.4,73.159 c -1.5402,6.5399 -8.6252,11.423 -15.822,10.905 -7.1967,-0.51787 -11.778,-6.2407 -10.231,-12.78 1.5402,-6.5399 8.6252,-11.423 15.822,-10.905 7.1967,0.51788 11.778,6.2407 10.231,12.78 z"
           fill="#ffffff" /><path
           id="path2858"
           d="m 331.07,87.891 c 0.85635,6.2929 -2.9226,9.9196 -8.4391,8.0991 -5.5165,-1.8205 -10.68,-8.3983 -11.531,-14.689 -0.85635,-6.2929 2.9226,-9.9196 8.4391,-8.0991 5.5165,1.8205 10.68,8.3983 11.531,14.689 z"
           fill="#ffffff" /><path
           id="path2860"
           opacity="0.66239"
           stroke-linejoin="round"
           d="M 204.56,14.625 C 118.31,14.176 69.6,53.079 42.31,95.594 28.667,116.85 20.681,139.13 17.062,157.38 c -3.6188,18.243 -1.2478,33.628 -0.75,34.594 4.0675,7.8872 18.629,15.338 38.719,19.281 20.09,3.943 43.895,4.8695 62.438,5.6562 36.087,1.5311 147.8,2.2739 184.56,-2.125 21.504,-2.5732 45.328,-2.1444 65.281,-4.9375 19.953,-2.7931 34.174,-8.3398 41.094,-19.625 1.0787,-1.7592 3.3826,-16.131 -1.0938,-34.062 -4.4763,-17.931 -14.073,-39.814 -29.656,-60.75 -31.16,-41.878 -85.37,-80.329 -173.09,-80.786 z"
           stroke="#ffffff"
           stroke-width="12"
           fill="none" /></g><path
         id="path2864"
         style="color:#000000;fill:url(#radialGradient964)"
         d="m 39.775,19.009 a 8.6621,8.6621 0 1 1 -17.324,0 8.6621,8.6621 0 1 1 17.324,0 z"
         fill-rule="evenodd"
         transform="matrix(1.7554,0,0,0.94834,-19.411,28.791)"
         fill="url(#radialGradient2243)" /></g></g></svg>
